# xmcd
# Track frame offsets:
# 225
# 2912
# 15673
# 29065
# 43912
# 59329
# 78889
# 93432
# 116492
# 133602
# 145252
#
# Disc length: 2191 seconds
# Revision: 0
# Processed by: cddbd v1.4PL0 Copyright (c) Steve Scherf et al.
# Submitted via: VisiTrax 2.9.5.180 - For more info visit www.synapsa.com
#
DISCID=92088c0b
DTITLE=B Jeff Stone - Stone Tradition
DYEAR=1900
DGENRE=
TTITLE0=Introduction
TTITLE1=Texas tea
TTITLE2=Old tige
TTITLE3=Sinful Mary
TTITLE4=You're so good when you're bad
TTITLE5=Another perfect day
TTITLE6=Pompineaux (pompin-Yo)
TTITLE7=Mr. Shorty
TTITLE8=Just for the love of it
TTITLE9=In the misty moonlight
TTITLE10=Better than you are
EXTD=
EXTT0=
EXTT1=
EXTT2=
EXTT3=
EXTT4=
EXTT5=
EXTT6=
EXTT7=
EXTT8=
EXTT9=
EXTT10=
PLAYORDER=
